<svg id="svg" version="1.1" xmlns="http://www.w3.org/2000/svg" xmlns:xlink="http://www.w3.org/1999/xlink" viewBox="0, 0, 400,274.6469401479489">
    <g id="svgg">
        <path id="path0" d="M145.048 102.554 C 143.807 104.055,144.034 115.434,145.321 116.251 C 145.509 116.370,149.391 116.470,153.949 116.472 L 162.235 116.476 152.402 136.047 C 141.857 157.036,142.167 156.279,143.389 158.055 L 144.209 159.247 162.858 159.247 C 177.452 159.247,181.567 159.174,181.782 158.911 C 182.871 157.573,182.871 146.933,181.782 145.595 C 181.573 145.339,179.521 145.259,173.202 145.259 C 168.633 145.259,164.896 145.199,164.896 145.125 C 164.896 145.051,169.344 136.092,174.781 125.216 L 184.667 105.441 183.860 103.897 L 183.053 102.354 164.190 102.285 C 149.306 102.230,145.269 102.287,145.048 102.554 " stroke="none" fill="#04acac" fill-rule="evenodd"></path>
        <path id="path1" d="M107.734 55.176 C 81.116 57.679,60.081 79.552,54.215 110.827 C 47.388 147.226,61.025 173.807,91.728 183.951 C 102.199 187.410,112.143 188.859,134.499 190.183 C 172.070 192.410,191.401 199.587,198.749 214.040 C 200.460 217.404,204.703 217.733,206.792 214.663 L 207.397 213.774 207.398 199.220 C 207.399 191.216,207.478 182.945,207.575 180.839 L 207.750 177.011 203.136 177.073 L 198.522 177.135 198.521 188.246 L 198.521 199.357 196.261 197.592 C 183.068 187.291,167.884 183.306,133.692 181.174 C 111.240 179.774,100.830 178.086,91.305 174.303 C 70.281 165.952,59.510 147.170,61.613 122.529 C 63.233 103.542,70.338 87.114,81.458 76.645 C 96.776 62.223,120.862 59.742,133.943 71.238 L 135.135 72.286 134.481 73.735 C 133.478 75.957,133.518 80.475,134.559 82.593 C 138.687 90.991,150.896 89.746,153.218 80.690 C 154.792 74.553,150.848 68.788,144.486 67.924 C 143.139 67.741,142.921 67.601,141.274 65.855 C 133.774 57.904,121.222 53.908,107.734 55.176 M203.766 92.713 C 201.694 92.838,196.575 93.368,195.898 93.527 L 195.293 93.670 195.293 118.369 L 195.293 143.068 196.839 143.289 C 198.814 143.572,204.187 143.572,205.851 143.290 L 207.128 143.074 207.128 135.088 L 207.128 127.102 210.638 127.190 C 222.289 127.485,228.239 122.192,228.574 111.231 C 228.995 97.459,221.226 91.660,203.766 92.713 M336.030 92.806 C 327.343 94.027,322.529 99.398,322.529 107.868 C 322.529 115.874,325.634 119.430,336.049 123.347 C 340.203 124.910,341.628 126.205,341.627 128.419 C 341.625 133.435,334.141 134.500,325.023 130.781 L 323.618 130.208 322.938 132.438 C 320.836 139.328,320.780 141.146,322.646 141.836 C 339.574 148.101,354.555 141.562,354.535 127.919 C 354.524 120.040,351.894 116.805,342.165 112.700 C 335.523 109.898,334.817 109.336,334.814 106.849 C 334.810 103.124,340.316 101.900,346.738 104.198 C 348.292 104.754,349.726 105.232,349.924 105.261 C 350.549 105.351,352.409 99.856,352.792 96.786 L 352.983 95.259 350.331 94.435 C 345.388 92.899,339.852 92.268,336.030 92.806 M239.408 118.225 L 239.408 143.107 253.943 143.107 C 267.532 143.107,268.489 143.076,268.670 142.636 C 268.929 142.005,268.918 134.022,268.657 133.087 L 268.450 132.347 259.981 132.347 L 251.513 132.347 251.513 127.505 L 251.513 122.663 258.087 122.663 L 264.661 122.663 264.875 121.385 C 265.155 119.712,265.156 115.137,264.876 113.181 L 264.655 111.634 258.084 111.634 L 251.513 111.634 251.513 108.003 L 251.513 104.371 259.833 104.371 L 268.152 104.371 268.358 102.824 C 268.631 100.773,268.634 97.401,268.365 95.158 L 268.148 93.342 253.778 93.342 L 239.408 93.342 239.408 118.225 M278.761 94.351 C 278.487 95.642,278.482 102.658,278.754 103.631 L 278.961 104.371 284.605 104.371 L 290.249 104.371 290.249 123.720 L 290.249 143.068 291.796 143.289 C 293.786 143.574,298.816 143.574,300.807 143.289 L 302.354 143.068 302.354 123.720 L 302.354 104.371 307.986 104.371 L 313.619 104.371 313.837 103.093 C 313.957 102.391,314.055 100.484,314.055 98.857 C 314.055 97.229,313.957 95.323,313.837 94.620 L 313.619 93.342 296.297 93.342 L 278.975 93.342 278.761 94.351 M210.616 103.312 C 214.471 103.938,216.274 106.141,216.274 110.225 C 216.274 114.876,213.906 117.159,209.280 116.964 L 207.263 116.880 207.191 110.108 C 207.107 102.188,206.849 102.701,210.616 103.312 " stroke="none" fill="#74747c" fill-rule="evenodd"></path>
        <path id="path2" d="M106.845 87.403 C 105.913 87.519,105.024 87.740,104.871 87.893 C 104.409 88.355,87.684 143.191,87.847 143.706 C 88.011 144.221,88.278 144.309,90.921 144.716 C 94.680 145.296,102.083 144.902,102.702 144.090 C 102.832 143.919,103.389 142.024,103.939 139.879 C 104.490 137.734,105.056 135.606,105.199 135.151 L 105.458 134.323 107.134 134.675 C 109.386 135.147,114.069 135.128,116.635 134.637 C 117.785 134.417,118.749 134.266,118.778 134.301 C 118.806 134.336,119.420 136.542,120.141 139.204 C 121.749 145.139,121.281 144.769,127.377 144.937 C 133.749 145.113,137.189 144.574,137.189 143.399 C 137.189 141.473,120.553 88.070,119.846 87.726 C 118.952 87.291,109.606 87.059,106.845 87.403 M114.581 113.213 C 115.771 118.150,116.745 122.291,116.745 122.416 C 116.745 123.075,112.372 123.598,110.083 123.212 C 107.180 122.722,107.198 123.638,109.890 113.089 C 111.202 107.948,112.307 103.852,112.346 103.989 C 112.384 104.125,113.390 108.276,114.581 113.213 " stroke="none" fill="#e78f31" fill-rule="evenodd"></path>
        <path id="path3" d="" stroke="none" fill="#747c7c" fill-rule="evenodd"></path>
        <path id="path4" d="M200.471 177.197 C 201.026 177.255,201.933 177.255,202.488 177.197 C 203.043 177.139,202.589 177.091,201.479 177.091 C 200.370 177.091,199.916 177.139,200.471 177.197 " stroke="none" fill="#8c947c" fill-rule="evenodd"></path>
        <path id="path5" d="M197.579 147.941 C 192.865 148.218,190.846 149.656,189.301 153.833 C 188.499 156.002,188.265 168.110,188.975 170.731 C 190.300 175.625,193.496 176.990,203.650 176.997 C 215.611 177.004,217.335 175.090,217.346 161.792 C 217.356 148.852,214.627 146.940,197.579 147.941 " stroke="none" fill="#c4d444" fill-rule="evenodd"></path>
    </g>
</svg>
